<svg width="375" height="433" viewBox="0 0 375 433" fill="none" xmlns="http://www.w3.org/2000/svg">
<g filter="url(#filter0_d_1_12)">
<path d="M204.87 124.371V121.203C204.87 118.329 207.167 116 210 116C212.833 116 215.13 118.329 215.13 121.203V124.371C215.13 127.245 212.833 129.574 210 129.574C207.167 129.574 204.87 127.244 204.87 124.371ZM155.263 140.64C156.213 142.31 157.937 143.244 159.711 143.244C160.58 143.244 161.462 143.019 162.269 142.547C164.723 141.111 165.565 137.928 164.15 135.439L162.59 132.697C161.173 130.207 158.035 129.354 155.583 130.789C153.129 132.225 152.287 135.408 153.703 137.897L155.263 140.64ZM257.729 142.547C258.536 143.02 259.418 143.245 260.288 143.245C262.061 143.245 263.786 142.311 264.736 140.642L266.297 137.899C267.713 135.41 266.873 132.228 264.419 130.791C261.966 129.355 258.829 130.208 257.412 132.696L255.851 135.439C254.434 137.927 255.275 141.109 257.729 142.547ZM297.116 180.591C297.986 180.591 298.869 180.366 299.677 179.893L302.381 178.309C304.834 176.872 305.674 173.689 304.257 171.201C302.841 168.712 299.704 167.86 297.25 169.298L294.546 170.881C292.093 172.318 291.253 175.501 292.669 177.99C293.619 179.658 295.343 180.591 297.116 180.591ZM310.45 272.874C303.789 286.265 285.175 295.263 264.131 295.263C249.705 295.263 236.192 291.042 227.005 283.816C221.743 287.474 216.187 289.83 210.682 290.55C210.431 290.583 210.18 290.595 209.937 290.592C209.732 290.591 209.525 290.577 209.319 290.55C203.814 289.829 198.258 287.474 192.995 283.816C183.808 291.043 170.296 295.263 155.869 295.263C134.825 295.263 116.211 286.265 109.55 272.874C108.817 271.4 108.816 269.661 109.55 268.186C114.465 258.303 125.704 250.809 139.926 247.561C132.546 236.929 129.852 224.365 133.194 213.618C133.603 212.303 134.511 211.206 135.716 210.569C144.145 206.115 154.835 205.792 165.24 209.491C166.785 204.3 169.216 199.783 172.51 196.262C173.637 195.058 175.264 194.472 176.887 194.684C179.577 195.036 182.28 195.779 184.955 196.873C190.382 185.238 198.382 176.561 207.859 172.15C209.217 171.517 210.78 171.517 212.138 172.15C221.612 176.559 229.609 185.23 235.038 196.858C237.713 195.773 240.418 195.037 243.114 194.684C244.738 194.472 246.364 195.058 247.49 196.262C250.785 199.783 253.215 204.3 254.76 209.49C265.166 205.792 275.855 206.115 284.283 210.568C285.488 211.205 286.396 212.302 286.805 213.617C290.149 224.365 287.454 236.928 280.073 247.56C294.296 250.808 305.535 258.302 310.45 268.185C311.183 269.661 311.183 271.4 310.45 272.874ZM248.339 258.114C253.909 256.71 259.443 253.819 264.318 249.67C274.274 241.197 279.488 228.859 277.557 218.889C271.532 216.515 264.016 216.883 256.61 219.897C257.321 229.613 255.594 240.602 251.327 251.419C250.421 253.718 249.42 255.954 248.339 258.114ZM193.95 201.943C199.86 206.211 205.372 212.117 209.989 219.183C214.63 212.041 220.136 206.144 226.032 201.902C222.081 193.243 216.425 186.47 210 182.728C203.563 186.476 197.901 193.265 193.95 201.943ZM155.681 249.67C160.555 253.819 166.09 256.711 171.662 258.114C170.58 255.953 169.581 253.719 168.673 251.417C164.407 240.602 162.68 229.612 163.39 219.897C155.984 216.882 148.469 216.513 142.442 218.887C140.511 228.859 145.725 241.196 155.681 249.67ZM184.891 276.915C182.682 274.661 180.572 272.172 178.594 269.483C168.429 269.307 157.824 265.081 149.086 257.642C148.718 257.329 148.357 257.013 148 256.693C135.506 258.263 125.034 263.487 120.107 270.529C126.097 279.075 140.259 284.856 155.868 284.856C166.95 284.856 177.549 281.892 184.891 276.915ZM208.006 237.683C202.894 224.723 194.347 214.035 185.363 208.641C185.112 208.52 184.875 208.381 184.652 208.226C182.526 207.018 180.381 206.111 178.254 205.542C176.127 208.627 174.704 212.573 173.995 217.068C173.977 217.342 173.937 217.616 173.875 217.888C172.691 226.569 174.103 237.174 178.197 247.552C182.329 258.026 188.703 267.015 195.739 272.926C195.903 273.046 196.062 273.178 196.214 273.32C200.026 276.435 204.021 278.643 207.949 279.693C214.254 270.55 214.38 253.842 208.006 237.683ZM241.802 247.551C245.894 237.177 247.307 226.576 246.126 217.896C246.061 217.617 246.02 217.336 246.002 217.056C245.294 212.565 243.87 208.623 241.745 205.541C239.649 206.099 237.534 206.985 235.433 208.165C235.155 208.368 234.853 208.545 234.53 208.691C227.552 212.898 220.818 220.306 215.748 229.634C216.376 231.002 216.971 232.397 217.531 233.817C223.348 248.564 224.445 263.634 221.077 275.357C221.992 274.727 222.901 274.041 223.8 273.307C223.942 273.175 224.09 273.052 224.244 272.939C231.286 267.028 237.668 258.033 241.802 247.551ZM299.892 270.529C294.965 263.487 284.493 258.263 271.998 256.693C271.642 257.013 271.279 257.33 270.912 257.642C262.174 265.079 251.57 269.306 241.405 269.483C239.428 272.172 237.318 274.661 235.108 276.915C242.451 281.891 253.051 284.856 264.131 284.856C279.74 284.856 293.902 279.075 299.892 270.529ZM259.728 309.015C257.592 307.127 254.352 307.354 252.491 309.521C249.256 313.288 233.934 318.593 210 318.593C186.065 318.593 170.744 313.288 167.509 309.521C165.648 307.354 162.408 307.127 160.271 309.015C158.135 310.902 157.912 314.189 159.773 316.356C167.787 325.689 191.839 329 210.001 329C228.162 329 252.214 325.688 260.228 316.356C262.088 314.189 261.864 310.902 259.728 309.015ZM142.565 198.915C145.29 199.694 148.125 198.084 148.894 195.318C156.562 167.71 181.69 148.428 210 148.428C238.31 148.428 263.438 167.71 271.106 195.318C271.744 197.613 273.802 199.112 276.041 199.112C276.502 199.112 276.97 199.048 277.435 198.915C280.162 198.136 281.749 195.262 280.981 192.496C272.073 160.422 242.884 138.021 210 138.021C177.116 138.021 147.927 160.422 139.019 192.496C138.251 195.262 139.838 198.136 142.565 198.915ZM210 311.512C214.407 311.512 229.196 311.035 234.459 304.902C236.319 302.734 236.095 299.447 233.958 297.56C231.833 295.683 228.614 295.899 226.75 298.035C225.58 299.113 219.508 301.105 210 301.105C200.49 301.105 194.417 299.113 193.248 298.034C191.383 295.899 188.166 295.683 186.04 297.561C183.904 299.449 183.68 302.735 185.541 304.902C190.806 311.035 205.594 311.512 210 311.512ZM117.619 178.308L120.321 179.892C121.129 180.366 122.012 180.591 122.883 180.591C124.655 180.591 126.379 179.659 127.33 177.99C128.747 175.502 127.908 172.319 125.454 170.882L122.752 169.298C120.301 167.861 117.161 168.711 115.744 171.2C114.327 173.688 115.166 176.87 117.619 178.308Z" fill="white"/>
</g>
<defs>
<filter id="filter0_d_1_12" x="-11" y="0" width="442" height="453" filterUnits="userSpaceOnUse" color-interpolation-filters="sRGB">
<feFlood flood-opacity="0" result="BackgroundImageFix"/>
<feColorMatrix in="SourceAlpha" type="matrix" values="0 0 0 0 0 0 0 0 0 0 0 0 0 0 0 0 0 0 127 0" result="hardAlpha"/>
<feOffset dy="4"/>
<feGaussianBlur stdDeviation="60"/>
<feColorMatrix type="matrix" values="0 0 0 0 1 0 0 0 0 1 0 0 0 0 1 0 0 0 0.5 0"/>
<feBlend mode="normal" in2="BackgroundImageFix" result="effect1_dropShadow_1_12"/>
<feBlend mode="normal" in="SourceGraphic" in2="effect1_dropShadow_1_12" result="shape"/>
</filter>
</defs>
</svg>
